<svg id="Layer_1" data-name="Layer 1" xmlns="http://www.w3.org/2000/svg" width="100" height="100" viewBox="0 0 100 100">
  <title>common</title>
  <path d="M38.17,75.82A7.21,7.21,0,1,0,45.38,83,7.21,7.21,0,0,0,38.17,75.82Zm34.58,0A7.21,7.21,0,1,0,80,83,7.21,7.21,0,0,0,72.75,75.82Zm9.86-8.67H33.42l-1.67-8.34H85L95,15.5H23.09L21.94,9.76H8a3,3,0,1,0,0,6h9L28.5,73.16H82.61a3,3,0,1,0,0-6ZM68.06,21.5H87.45L84.06,36.19h-16Zm0,20.69H82.67L80.23,52.8H68.06ZM50,21.5h12V36.19H50Zm0,20.69h12V52.8H50ZM24.29,21.5H44V36.19H27.23Zm4.14,20.69H44V52.8H30.55Z"/>
</svg>
