<svg id="Layer_1" data-name="Layer 1" xmlns="http://www.w3.org/2000/svg" width="100" height="100" viewBox="0 0 100 100">
  <title>pay</title>
  <path d="M79.36,41.26c3.5-.06,7.34,1,6.45,5.19l-2.17,9.92h-5l.33-1.5c-2.72,2.71-9.56,2.88-8.45-3.34.78-3.63,4.56-4.79,10.17-4.79.39-1.61-.72-2-2.61-2a15.59,15.59,0,0,0-4.89,1l.44-3.63a25.52,25.52,0,0,1,5.72-.92ZM79.7,51.4c.11-.46.17-.87.28-1.33H78.75c-.94,0-2.5.23-3.06,1.21-.72,1.15.28,2.13,1.39,2.08A2.51,2.51,0,0,0,79.7,51.4ZM90.09,37.34h5.13L91,56.36H86Zm-23.34.06c2.67,0,5.9,2,5,6.45A7.63,7.63,0,0,1,64,50.08H60.12l-1.39,6.28h-5.4l4.12-19h9.3Zm-.17,6.45a2,2,0,0,0-1.9-2.59H62L60.9,46.44h2.51a3.47,3.47,0,0,0,3.18-2.59ZM30.66,41.26c3.46-.06,7.3,1,6.42,5.19l-2.14,9.91h-5l.33-1.5c-2.63,2.71-9.39,2.88-8.29-3.34.77-3.63,4.5-4.79,10-4.79.33-1.61-.77-2-2.63-2a14.48,14.48,0,0,0-4.78,1l.44-3.63a23.85,23.85,0,0,1,5.6-.92ZM31,51.4a11.61,11.61,0,0,1,.27-1.33H30.06c-.88,0-2.41.23-3,1.21a1.33,1.33,0,0,0,1.32,2.08A2.54,2.54,0,0,0,31,51.4Zm18.9-9.87H55.1L43.23,62.66H37.65l3.65-6.21-2-14.92h5l.8,8.83ZM18.24,37.39c2.74,0,5.92,2,5,6.45a7.63,7.63,0,0,1-7.71,6.23H11.59l-1.34,6.28H4.78l4.13-19Zm-.17,6.46a1.92,1.92,0,0,0-1.84-2.59H13.54l-1.17,5.19h2.57a3.41,3.41,0,0,0,3.13-2.59Z"/>
</svg>
