<svg id="Layer_1" data-name="Layer 1" xmlns="http://www.w3.org/2000/svg" width="100" height="100" viewBox="0 0 100 100">
  <title>pay</title>
  <path d="M52.67,42.21a7.79,7.79,0,1,1-8,7.69,7.77,7.77,0,0,1,8-7.69Zm-45.16.28c4.72,0,8,3.07,8,7.49a7.54,7.54,0,0,1-2.71,5.75,7.76,7.76,0,0,1-5.32,1.73H3.23v-15H7.51Zm3.4,11.24A5.13,5.13,0,0,0,12.52,50a5,5,0,0,0-1.61-3.72,5.39,5.39,0,0,0-4-1.21H6.15v9.9h.78A5.5,5.5,0,0,0,10.91,53.73Zm5.95,3.73v-15h2.91v15Zm10-9.23c3.31,1.21,4.29,2.29,4.29,4.67A4.82,4.82,0,0,1,26,57.82,5.8,5.8,0,0,1,20.86,55l1.88-1.82a3.44,3.44,0,0,0,3.18,2A2.13,2.13,0,0,0,28.18,53a1.79,1.79,0,0,0-.87-1.55,11.15,11.15,0,0,0-2-.85c-2.73-1-3.67-2-3.67-4.11a4.39,4.39,0,0,1,4.65-4.29,6.5,6.5,0,0,1,4.39,1.66l-1.52,2a3,3,0,0,0-2.35-1.21c-1.25,0-2.17.72-2.17,1.66s.51,1.23,2.26,1.88ZM32.09,50A7.86,7.86,0,0,1,40,42.16a7.42,7.42,0,0,1,3.58.92v3.44A4.86,4.86,0,0,0,40,44.83,5,5,0,0,0,35.09,50a4.89,4.89,0,0,0,5,5.16,4.65,4.65,0,0,0,3.51-1.64v3.44A8,8,0,0,1,40,57.8,7.74,7.74,0,0,1,32.09,50Zm35.1,2.56,4-10.05h3.15L67.93,57.84H66.36L60,42.5h3.18Zm8.5,4.91v-15h8.25V45H78.6v3.32h5.14v2.53H78.6v4h5.35v2.53ZM95.47,46.91a4,4,0,0,1-3.4,4.24l4.7,6.3H93.19l-4-6h-.38v6H85.87v-15h4.32C93.55,42.49,95.47,44.11,95.47,46.91Zm-5.84,2.47c1.86,0,2.85-.81,2.85-2.31s-1-2.22-2.8-2.22h-.89v4.54h.85Z"/>
</svg>
