<svg id="Layer_1" data-name="Layer 1" xmlns="http://www.w3.org/2000/svg" width="100" height="100" viewBox="0 0 100 100">
  <title>pay</title>
  <path d="M33.12,37.78h6.71l-10,24.5H23.15L18,42.76a15.36,15.36,0,0,1,8.26,8.35l.66,3.4ZM38.44,62.3l4-24.54h6.33l-4,24.54H38.44ZM61.51,47.62c3.66,1.75,5.34,3.87,5.32,6.67-.05,5.09-4.38,8.38-11,8.38a19.16,19.16,0,0,1-7.06-1.31l.89-5.49.82.39a12.7,12.7,0,0,0,6,1.29c1.82,0,3.78-.75,3.79-2.4,0-1.08-.82-1.84-3.29-3S51.33,49,51.37,45.43c0-4.77,4.45-8.1,10.71-8.1a15.66,15.66,0,0,1,5.68,1l-.86,5.32-.57-.28a11.15,11.15,0,0,0-4.74-.94c-2.48,0-3.63,1.09-3.63,2.11s1.34,1.91,3.56,3ZM84,37.79l5.13,24.52H83.26s-.58-2.82-.77-3.68H74.37c-.25.66-1.33,3.69-1.33,3.69H66.38l9.41-22.49a3.13,3.13,0,0,1,3.32-2H84ZM76.19,53.6h5.26C81.2,52.37,80,46.52,80,46.52l-.43-2.12c-.32.92-.88,2.41-.84,2.34S76.72,52.19,76.19,53.6ZM26.26,51.11C23.65,43.87,17.89,40,10.86,38.27l.08-.51H21.16A2.66,2.66,0,0,1,24,39.83Z"/>
</svg>
