<svg id="Layer_1" data-name="Layer 1" xmlns="http://www.w3.org/2000/svg" width="100" height="100" viewBox="0 0 100 100">
  <title>pay</title>
  <path d="M96.15,51.64l.54,12.22c-.92.42-4.41,2.27-5.72,2.27H84.53v-.88a5.73,5.73,0,0,1-3.31.88H61V62.81c0-.46-.08-.46-.46-.46h-.35v3.78H53.52V62.19a7.79,7.79,0,0,1-3.47.54h-.73v3.39H41.19L39.27,63.9l-2.12,2.22H24.09V51.64H37.38l1.89,2.23,2.08-2.23h8.94c1,0,2.74.15,3.47.89v-.89h8a6.37,6.37,0,0,1,3.39.89v-.89h12v.89a5.08,5.08,0,0,1,3-.89h6.7v.89A5.47,5.47,0,0,1,90,51.64h6.15ZM50.21,60.57c2.12,0,4.28-.58,4.28-3.47s-2.2-3.39-4.12-3.39h-7.9l-3.2,3.39-3-3.39h-10V64h9.82l3.16-3.37,3,3.37h4.78V60.57Zm14.91-.42a2.56,2.56,0,0,0-1.27-.89,2.83,2.83,0,0,0,1.77-2.74,2.35,2.35,0,0,0-1.23-2.31,6.48,6.48,0,0,0-3-.5H55.68V64h2.5V60.26h2.66c.89,0,1.39.08,1.77.46A3.39,3.39,0,0,1,63,62.81V64H65.5V62a3.21,3.21,0,0,0-.39-1.89Zm10.17-4.28V53.72H67V64h8.24v-2.1H69.47V59.84h5.7V57.76h-5.7V55.87ZM81.57,64c2.5,0,3.93-1,3.93-3.21a3.37,3.37,0,0,0-.73-2.24,4.39,4.39,0,0,0-2.89-.81H80.53a3.84,3.84,0,0,1-1-.15.77.77,0,0,1-.5-.73.88.88,0,0,1,.39-.81,1.61,1.61,0,0,1,1-.15H85v-2.2H80c-2.66,0-3.54,1.62-3.54,3.08,0,3.28,2.89,3.12,5.16,3.2a1.22,1.22,0,0,1,.89.23,1,1,0,0,1,.31.73,1,1,0,0,1-.31.66,1.61,1.61,0,0,1-1,.23H76.79V64h4.78Zm9.67,0c2.5,0,3.93-1,3.93-3.22a3.37,3.37,0,0,0-.73-2.24,4.39,4.39,0,0,0-2.89-.81H90.19a3.85,3.85,0,0,1-1-.15.77.77,0,0,1-.5-.73,1.08,1.08,0,0,1,.39-.81,1.61,1.61,0,0,1,1-.15h4.54v-2.2H89.69c-2.58,0-3.54,1.62-3.54,3.08,0,3.28,2.89,3.12,5.16,3.2a1.22,1.22,0,0,1,.89.23,1,1,0,0,1,.31.73,1,1,0,0,1-.31.66,1.46,1.46,0,0,1-1,.23H86.45V64h4.78Zm-28.85-8a.93.93,0,0,1,.5.89,1.24,1.24,0,0,1-.5,1,3,3,0,0,1-1.19.15l-3,.08V55.88h3A2.31,2.31,0,0,1,62.38,56.07ZM51.83,40.12a2.15,2.15,0,0,1-1.23.23h-3V38.08h3a3.12,3.12,0,0,1,1.23.15,1,1,0,0,1,.46,1,.93.93,0,0,1-.46.93Zm19.72-2.43,1.7,4.08H69.85ZM44.66,63.15l-3.81-4.28,3.81-4v8.32Zm5.7-7.28c.89,0,1.46.35,1.46,1.23a1.32,1.32,0,0,1-1.46,1.39H47.09V55.87ZM11.07,41.77l1.73-4.08,1.7,4.08H11.07Zm17.64,14.1h6.2l2.74,3-2.81,3H28.71V59.84h5.47V57.76H28.71Zm.23-9.4-.73,1.85H23.86l-.73-1.77v1.77H14.77L13.88,46H11.76l-1,2.35H3.31l3.21-7.59,3-6.86H16l.89,1.7v-1.7h7.51l1.7,3.66,1.66-3.66h24a4.2,4.2,0,0,1,2.81.81v-.81h6.59v.81a8.39,8.39,0,0,1,4.12-.81h9.51l.89,1.7v-1.7h7l1,1.7v-1.7H90.5V48.32H83.57l-1.35-2.2v2.2H73.59l-1-2.35H70.51l-1,2.35H65a8.54,8.54,0,0,1-4-.89v.89H50.36V45c0-.46-.08-.54-.38-.54h-.35v3.85H28.94V46.47Zm32.63-9.36a5.45,5.45,0,0,0-1.35,4,5.45,5.45,0,0,0,1.27,3.93,5.31,5.31,0,0,0,3.62,1.16H68L69,44h5.16l1,2.27h5V38.5l4.66,7.74h3.54V35.92H85.76v7.16l-4.35-7.16H77.6v9.75l-4.16-9.75H69.78L66.24,44H65.12a2.55,2.55,0,0,1-1.7-.5,3.7,3.7,0,0,1-.66-2.47,3.29,3.29,0,0,1,.66-2.35,2.68,2.68,0,0,1,1.93-.58H67.7V35.92H65.35a5,5,0,0,0-3.78,1.19Zm-5.08-1.19V46.24H59V35.92Zm-11.36,0V46.24h2.43V42.51h2.66a2.68,2.68,0,0,1,1.85.42,3.32,3.32,0,0,1,.35,2v1.31h2.54v-2a2.65,2.65,0,0,0-.46-1.85,3,3,0,0,0-1.19-.89,2.92,2.92,0,0,0,1.77-2.74,2.5,2.5,0,0,0-1.31-2.35,5.74,5.74,0,0,0-3-.46H45.12Zm-10.05,0V46.25h8.28V44.13H37.57V42h5.7V39.93h-5.7V38.08h5.78V35.92H35.07ZM25,46.24H27.1l3.62-8.09v8.09h2.5V35.92h-4l-3,7-3.24-7h-4v9.75l-4.24-9.75H11L6.6,46.24H9.26L10.18,44h5.2l.92,2.27h5V38.15Z"/>
</svg>
