<svg id="Layer_1" data-name="Layer 1" xmlns="http://www.w3.org/2000/svg" width="100" height="100" viewBox="0 0 100 100">
  <title>pay</title>
  <path d="M41.5,53l3.2-.17v3.41a6.28,6.28,0,0,1-2.7.53A7.51,7.51,0,0,1,34.5,49c0-3.71,2.53-6.26,5.88-6.26a6,6,0,0,1,4.54,2l-.53.85.74-.17,1.76-1.68a8.28,8.28,0,0,0-2.8-1.31A12.17,12.17,0,0,0,40.85,42c-5.41,0-8.58,3.82-8.58,7.94,0,3.37,2.23,7.68,8.09,7.68a22.52,22.52,0,0,0,3.5-.36l3-.7V53.95c0-.21,0-.83,0-1a.49.49,0,0,1,.21-.34l.55-.53H43.2Zm12.72-6.49A5.61,5.61,0,0,0,48.36,52a5.34,5.34,0,0,0,5.52,5.34,5.53,5.53,0,0,0,5.75-5.5A5.29,5.29,0,0,0,54.22,46.48Zm2.49,9a2.89,2.89,0,0,1-2.31,1.16c-2.74,0-3.85-3.69-3.85-5.93a3.44,3.44,0,0,1,1-2.77,3.18,3.18,0,0,1,2-.77c2.81,0,3.76,3.81,3.76,5.8A4.09,4.09,0,0,1,56.71,55.49Zm29.43-.16V50.11c0-3.22,0-6,.21-7.72.09-.79.32-.93,1-1.34H84.12l-1.7.82h1.76c0,1-.11,2.49-.13,3.65C84,47.86,84,50.38,84,52.14v3.69c0,.45-.09.52-.61,1.19h4l.84-.5c-.38,0-.77-.07-1.15-.12C86.3,56.35,86.14,56.22,86.14,55.33ZM66.26,46.48A5.61,5.61,0,0,0,60.4,52a5.34,5.34,0,0,0,5.52,5.34,5.53,5.53,0,0,0,5.75-5.5A5.3,5.3,0,0,0,66.26,46.48Zm2.49,9a2.89,2.89,0,0,1-2.31,1.16c-2.74,0-3.85-3.69-3.85-5.93a3.45,3.45,0,0,1,1-2.77,3.18,3.18,0,0,1,2-.77c2.81,0,3.76,3.81,3.76,5.8A4.1,4.1,0,0,1,68.75,55.49Zm25.85.7c-2.15,0-4.1-1.68-4.66-4.55l1.74-.14L97,49.36a3.75,3.75,0,0,0-1.58-2.24,4.39,4.39,0,0,0-2.33-.64,5.13,5.13,0,0,0-5.18,5.23,5.86,5.86,0,0,0,2.31,4.78,4.84,4.84,0,0,0,3,.88,5.24,5.24,0,0,0,2.2-.43c.25-.11.5-.27.75-.41l1.2-1.13A5.82,5.82,0,0,1,94.6,56.19Zm-4.75-5.82c0-2.45,1.7-3.15,2.6-3.15a2.25,2.25,0,0,1,2.24,1.95c0,.32-.23.46-.66.61l-4.12,1.79C89.9,51.17,89.85,50.76,89.85,50.38Zm-7.06-3.6H78.12A6.17,6.17,0,0,0,74.07,48a4.07,4.07,0,0,0-1.45,3,3.58,3.58,0,0,0,3.76,3.55c.23,0,.47,0,.73,0a2,2,0,0,0-.23.89A2.38,2.38,0,0,0,77.56,57a9.74,9.74,0,0,0-4.32,1,3.27,3.27,0,0,0-1.74,2.76c0,1.68,1.59,3.24,4.87,3.24,3.89,0,6-2.15,6-4.28,0-1.56-.91-2.33-1.9-3.17l-.82-.63A1.24,1.24,0,0,1,79,55a1.6,1.6,0,0,1,.64-1.11,3.69,3.69,0,0,0,.29-6.27h1.4Zm-2,13.86c0,1.4-1.15,2.44-3.33,2.44-2.42,0-4-1.16-4-2.76A2.54,2.54,0,0,1,75.43,58a9.05,9.05,0,0,1,2.38-.36,3.75,3.75,0,0,1,.52,0C80,58.87,80.8,59.48,80.8,60.63ZM79,53.34a2.33,2.33,0,0,1-1.54.64c-1.95,0-2.83-2.51-2.83-4a2.62,2.62,0,0,1,.5-1.68,2.12,2.12,0,0,1,1.59-.75c1.88,0,2.85,2.54,2.85,4.17A2.29,2.29,0,0,1,79,53.34ZM25.09,37.56A2.81,2.81,0,0,0,22.56,36a2.76,2.76,0,0,0-1.2.27A2.8,2.8,0,0,0,20,40a21.65,21.65,0,0,1,1.83,6.77,28.87,28.87,0,0,0-7.07-7A5.09,5.09,0,0,0,13,39a2.21,2.21,0,0,0-1,.17,2.55,2.55,0,0,0-1,.62,2.79,2.79,0,0,0-.6,1,2.64,2.64,0,0,0,.22,2.27A11.86,11.86,0,0,1,12.39,48a18.08,18.08,0,0,0-6-5.22A2.53,2.53,0,0,0,4,47.23a11.87,11.87,0,0,1,6.3,9.32c.2,1.54.63,2.41,1.34,2.84a2.71,2.71,0,0,0,.61.27,2.64,2.64,0,0,0,3-1.16,17.5,17.5,0,0,0,2.5-7.95,18,18,0,0,1,2,8.4c0,.24,0,.88,0,1a2.89,2.89,0,0,0,.07.65,2.79,2.79,0,0,0,5.16.72,20.65,20.65,0,0,0,1.61-4.19c.15-.53.28-1,.41-1.57a27.72,27.72,0,0,0,.69-6.16,27.94,27.94,0,0,0-.69-6.15A27.48,27.48,0,0,0,25.09,37.56Z"/>
</svg>
