<svg id="Layer_1" data-name="Layer 1" xmlns="http://www.w3.org/2000/svg" width="100" height="100" viewBox="0 0 100 100">
  <title>pay</title>
  <path d="M77.88,48.94c.78,0,1.18.57,1.18,1.68,0,1.67-.71,2.89-1.75,2.89q-1.18,0-1.18-1.71c0-1.67.75-2.85,1.75-2.85ZM64.69,53c0-.86.64-1.32,1.92-1.32.14,0,.25,0,.5,0,0,1.28-.71,2.14-1.6,2.14a.78.78,0,0,1-.82-.86ZM49,49.8v.43H46.52c.21-1,.71-1.53,1.43-1.53A1,1,0,0,1,49,49.8Zm15.39-20.7A20.91,20.91,0,1,1,51.24,66.21a22.52,22.52,0,0,0,6-9.72H55.47A21,21,0,0,1,50,65.15a21.06,21.06,0,0,1-5.45-8.65H42.79a22.66,22.66,0,0,0,5.91,9.71,20.91,20.91,0,1,1,0-32.41,22.54,22.54,0,0,0-5.91,9.7h1.74A20.89,20.89,0,0,1,50,34.87a20.82,20.82,0,0,1,5.49,8.64h1.74a22.54,22.54,0,0,0-6-9.72,20.71,20.71,0,0,1,13.17-4.69ZM24.11,55.5h2.21L28.07,45H24.57l-2.14,6.52L22.33,45H19.12L17.38,55.5h2.07l1.35-8,.18,8h1.53l2.89-8.09Zm9.48-1,.07-.53.5-3a10.77,10.77,0,0,0,.18-1.71c0-1.64-1-2.49-3-2.49a9,9,0,0,0-2.67.43l-.32,1.92.21,0,.32-.11a7.36,7.36,0,0,1,1.85-.21c1,0,1.43.21,1.43.78a1.78,1.78,0,0,1-.07.53c-.36,0-.68-.07-.93-.07-2.49,0-3.92,1.21-3.92,3.31a2.07,2.07,0,0,0,2,2.32,2.78,2.78,0,0,0,2.35-1l0,.89h1.85l0-.21,0-.32Zm4.6-4.13c-1-.43-1.07-.53-1.07-.93s.39-.68,1.1-.68a14.06,14.06,0,0,1,1.6.11l.32-2a12.88,12.88,0,0,0-2-.18c-2.49,0-3.38,1.32-3.35,2.88A2.5,2.5,0,0,0,36.51,52c.93.43,1.07.57,1.07.93,0,.53-.39.78-1.28.78a6.68,6.68,0,0,1-2-.32l-.32,2,.11,0,.39.07a2.34,2.34,0,0,0,.61.07,8.33,8.33,0,0,0,1.21.07c2.35,0,3.46-.89,3.46-2.85a2.37,2.37,0,0,0-1.57-2.39Zm4.92,3.17c-.53,0-.75-.18-.75-.61a1.35,1.35,0,0,1,0-.36l.6-3.56h1.14l.28-2.1H43.28l.25-1.28H41.32l-1,5.84-.11.68L40.1,53a5.94,5.94,0,0,0-.07.75,1.65,1.65,0,0,0,1.78,1.89,4.64,4.64,0,0,0,1.6-.28l.28-1.89a1.5,1.5,0,0,1-.61.07Zm5.2.14c-1.28,0-2-.5-2-1.5a.7.7,0,0,1,0-.25H50.8a8.66,8.66,0,0,0,.28-2.14,2.86,2.86,0,0,0-3-3.1c-2.24,0-3.88,2.17-3.88,5.09,0,2.53,1.28,3.85,3.78,3.85a7.31,7.31,0,0,0,2.32-.36l.36-2.14a4.9,4.9,0,0,1-2.32.53Zm7.09-4.35h.14a9,9,0,0,1,.86-2.46l-.07,0H56.1c-.75,0-1.18.36-1.85,1.39L54.47,47h-2L51,55.5h2.24c.82-5.24,1-6.13,2.1-6.13Zm6.49,6L62.27,53a4.36,4.36,0,0,1-1.89.53c-1.32,0-2.1-1-2.1-2.56,0-2.32,1.18-4,2.85-4a4.28,4.28,0,0,1,2,.57l.39-2.28-.57-.21-.89-.21a4.42,4.42,0,0,0-1-.11c-3,0-5,2.64-5,6.38,0,2.82,1.5,4.56,3.92,4.56a7.42,7.42,0,0,0,2-.32ZM68.93,54l.46-3a7.67,7.67,0,0,0,.18-1.71c0-1.64-1-2.49-2.92-2.49A9,9,0,0,0,64,47.2l-.32,1.92.21,0,.28-.11A7.66,7.66,0,0,1,66,48.77c1,0,1.43.21,1.43.78a2.24,2.24,0,0,1-.11.53c-.32,0-.64-.07-.89-.07-2.49,0-3.92,1.21-3.92,3.31a2.07,2.07,0,0,0,2,2.32,2.78,2.78,0,0,0,2.35-1l0,.89h1.85v-.21l0-.32.07-.43Zm2.78,1.5c.82-5.24,1-6.13,2.1-6.13H74a9,9,0,0,1,.86-2.46l-.07,0h-.21c-.75,0-1.18.36-1.85,1.39L72.89,47h-2L69.5,55.5h2.21Zm6.77,0h2.1L82.29,45H80.08l-.5,3a2.56,2.56,0,0,0-2.14-1.18c-2,0-3.63,2.42-3.63,5.27,0,2.14,1.07,3.53,2.71,3.53a2.67,2.67,0,0,0,2.07-.93ZM29.45,53c0-.86.64-1.32,1.89-1.32.18,0,.28,0,.5,0,0,1.28-.68,2.14-1.6,2.14a.75.75,0,0,1-.78-.86Z"/>
</svg>
