<svg id="Layer_1" data-name="Layer 1" xmlns="http://www.w3.org/2000/svg" width="100" height="100" viewBox="0 0 100 100">
  <title>pay</title>
  <path d="M31.83,47a6,6,0,0,0,3.77,5.5,14.66,14.66,0,0,1-1.94,3.87c-1.17,1.66-2.38,3.31-4.3,3.34s-2.48-1.08-4.63-1.08-2.82,1-4.6,1.11S16.88,58,15.7,56.31c-2.41-3.38-4.25-9.54-1.78-13.7a6.9,6.9,0,0,1,5.81-3.41c1.81,0,3.52,1.18,4.63,1.18s3.19-1.46,5.38-1.25a6.63,6.63,0,0,1,5.13,2.7,6.14,6.14,0,0,0-3,5.17M28.3,36.9a5.87,5.87,0,0,0,1.46-4.34,6.36,6.36,0,0,0-4.14,2.06,5.58,5.58,0,0,0-1.49,4.21A5.27,5.27,0,0,0,28.3,36.9m14.19-2q1.2-.2,2.4-.33a26.14,26.14,0,0,1,2.89-.15,12.61,12.61,0,0,1,3.89.53,7,7,0,0,1,2.69,1.52,6.26,6.26,0,0,1,1.41,2.09,7.18,7.18,0,0,1,.51,2.79,7.56,7.56,0,0,1-.69,3.34,6.94,6.94,0,0,1-1.9,2.4,8,8,0,0,1-2.85,1.45,13,13,0,0,1-3.61.48,14.5,14.5,0,0,1-3-.26V59.37H42.49V34.93Zm1.77,12.33a7.81,7.81,0,0,0,1.43.26q.79.07,1.69.07a8,8,0,0,0,5.24-1.54,5.53,5.53,0,0,0,1.86-4.51A5.93,5.93,0,0,0,54,39,4.48,4.48,0,0,0,52.6,37.3a6.39,6.39,0,0,0-2.14-1,10.14,10.14,0,0,0-2.74-.35,19.93,19.93,0,0,0-2.07.09q-.86.09-1.39.2v11Zm26.06,7.93q0,1.06,0,2.13a13.46,13.46,0,0,0,.23,2.05H68.93l-.26-2.5h-.08a6.21,6.21,0,0,1-.86,1,6.78,6.78,0,0,1-1.22.94,6.54,6.54,0,0,1-1.58.68,6.93,6.93,0,0,1-1.93.26,5.89,5.89,0,0,1-2.31-.42A4.75,4.75,0,0,1,59,58.25a4.49,4.49,0,0,1-1-1.56,5.13,5.13,0,0,1-.32-1.76,5.36,5.36,0,0,1,2.69-4.81q2.69-1.69,8.1-1.61V48a11.23,11.23,0,0,0-.13-1.6,4.93,4.93,0,0,0-.58-1.71,3.72,3.72,0,0,0-1.35-1.36A4.66,4.66,0,0,0,64,42.82a8.11,8.11,0,0,0-4.39,1.32l-.56-1.28a8.42,8.42,0,0,1,2.48-1.15,10.09,10.09,0,0,1,2.67-.35A6.56,6.56,0,0,1,67.3,42a5.05,5.05,0,0,1,1.86,1.61,5.94,5.94,0,0,1,.92,2.22,12.54,12.54,0,0,1,.24,2.44v6.94Zm-1.77-5.25a24.88,24.88,0,0,0-3,.11,11.06,11.06,0,0,0-2.87.64,5.49,5.49,0,0,0-2.18,1.45,3.63,3.63,0,0,0-.86,2.53,3.33,3.33,0,0,0,1.09,2.75,3.78,3.78,0,0,0,2.44.88,6,6,0,0,0,2-.29,5.13,5.13,0,0,0,1.5-.79,5.06,5.06,0,0,0,1.07-1.12,5.25,5.25,0,0,0,.66-1.29,4.91,4.91,0,0,0,.19-1.07V49.94Zm5.22-8.18L78.35,53.2q.38,1,.71,2t.6,1.85h.08l.6-1.82q.34-1,.75-2.07l4.28-11.37h1.88L82,54.67q-.72,1.87-1.48,3.72-.63,1.54-1.41,3a21.42,21.42,0,0,1-1.45,2.37,10,10,0,0,1-1.63,1.8,8.87,8.87,0,0,1-1.93,1.34q-.88.42-1.18.53L72.34,66a15.09,15.09,0,0,0,1.5-.77A8.17,8.17,0,0,0,75.46,64a14.78,14.78,0,0,0,1.48-1.74,12.17,12.17,0,0,0,1.45-2.62,2.91,2.91,0,0,0,.23-.77,2.17,2.17,0,0,0-.23-.77l-6.5-16.33h1.88Z"/>
</svg>
