<svg id="Layer_1" data-name="Layer 1" xmlns="http://www.w3.org/2000/svg" width="100" height="100" viewBox="0 0 100 100">
  <title>social</title>
  <path d="M75.63,8.22H24.37A16.17,16.17,0,0,0,8.23,24.37V75.63A16.17,16.17,0,0,0,24.37,91.78H75.63A16.17,16.17,0,0,0,91.77,75.63V24.37A16.17,16.17,0,0,0,75.63,8.22Zm4.63,9.63h1.85V32L68,32.05l0-14.16ZM38.08,41.43A14.68,14.68,0,1,1,35.3,50,14.68,14.68,0,0,1,38.08,41.43ZM83.63,75.63a8,8,0,0,1-8,8H24.37a8,8,0,0,1-8-8V41.43H28.84a22.84,22.84,0,1,0,42.32,0H83.63Z"/>
</svg>
