<svg id="Layer_1" data-name="Layer 1" xmlns="http://www.w3.org/2000/svg" width="100" height="100" viewBox="0 0 100 100">
  <title>social</title>
  <path d="M89.78,47.34a50,50,0,0,0-.62-5H50.83q0,7.95,0,15.9h0v0H73a19.19,19.19,0,0,1-8.13,12.56h0a23.34,23.34,0,0,1-9,3.55,26.39,26.39,0,0,1-9.72,0,24.27,24.27,0,0,1-9.07-3.92A25.28,25.28,0,0,1,28.18,59c-.14-.36-.27-.72-.39-1.08v0l0,0a24.57,24.57,0,0,1,0-15.81,25.44,25.44,0,0,1,5.9-9.59,24,24,0,0,1,24.13-6.29,21.93,21.93,0,0,1,8.78,5.17l7.49-7.49c1.31-1.34,2.69-2.63,4-4h0A39.59,39.59,0,0,0,65,11.73a40.83,40.83,0,0,0-50.52,20A40.33,40.33,0,0,0,10.88,42,40.77,40.77,0,0,0,40.27,89.37a43.6,43.6,0,0,0,20.85.22A36,36,0,0,0,88.12,64,46.88,46.88,0,0,0,89.78,47.34Z"/>
</svg>
