<svg id="Layer_1" data-name="Layer 1" xmlns="http://www.w3.org/2000/svg" width="100" height="100" viewBox="0 0 100 100">
  <title>social</title>
  <path d="M8.22,77a14.18,14.18,0,0,1,2.32-7.83,19.45,19.45,0,0,1,6.19-6q6.84-4.28,21.1-5.22a23.56,23.56,0,0,1-2.48-3.86,8.65,8.65,0,0,1-.81-3.81,11.6,11.6,0,0,1,1.1-4.44q-2.4.21-3.55.21a18.19,18.19,0,0,1-13-5,16.86,16.86,0,0,1-5.3-12.77A19.41,19.41,0,0,1,15.64,20a20.09,20.09,0,0,1,5.17-6.84A26.07,26.07,0,0,1,30.34,8,22.51,22.51,0,0,1,41.7,7.16H63.53L56.32,10.5H49.48a34,34,0,0,1,5.85,7.37,17.23,17.23,0,0,1,2,8.36A17.08,17.08,0,0,1,56,33,15.76,15.76,0,0,1,53,37.85q-1.8,1.86-3.63,3.4a20.66,20.66,0,0,0-3.11,3.21,5.61,5.61,0,0,0-1.28,3.45,5.43,5.43,0,0,0,1.67,3.68,28.41,28.41,0,0,0,4,3.55Q53,56.88,55.38,59a17.87,17.87,0,0,1,4,5.43,16.34,16.34,0,0,1,1.67,7.42,17.8,17.8,0,0,1-2.51,9,22.26,22.26,0,0,1-11,9.38,40.24,40.24,0,0,1-15.56,3,37.52,37.52,0,0,1-12.87-2.17,16.58,16.58,0,0,1-9-7.18A12.8,12.8,0,0,1,8.22,77Zm10-2.4a11.51,11.51,0,0,0,1.83,6.45,12.58,12.58,0,0,0,4.78,4.34,26.19,26.19,0,0,0,6.21,2.3,29.29,29.29,0,0,0,6.66.76,24.59,24.59,0,0,0,5.82-.68,19.78,19.78,0,0,0,5.17-2A10.27,10.27,0,0,0,52.53,82,11.06,11.06,0,0,0,54,76.27a9.13,9.13,0,0,0-.36-2.56,20.46,20.46,0,0,0-.76-2.19,9.11,9.11,0,0,0-1.41-2.17q-1-1.23-1.54-1.83a17.81,17.81,0,0,0-2-1.8Q46.4,64.52,46,64.21l-2.17-1.57-1.91-1.36a22.2,22.2,0,0,0-2.51-.1,41.23,41.23,0,0,0-5.48.36,31.86,31.86,0,0,0-5.62,1.31,20.22,20.22,0,0,0-5.07,2.4,11.62,11.62,0,0,0-3.58,3.89,10.81,10.81,0,0,0-1.41,5.51Zm6.68-51.91a26.76,26.76,0,0,0,.52,5.09A27.6,27.6,0,0,0,27.1,33.2,22.7,22.7,0,0,0,29.81,38a13,13,0,0,0,3.92,3.5,9.79,9.79,0,0,0,5,1.36A10.64,10.64,0,0,0,42.84,42a10,10,0,0,0,3.45-2.27q2.77-3,2.77-8.3a26.6,26.6,0,0,0-.89-6.53,33.07,33.07,0,0,0-2.53-6.76,15.62,15.62,0,0,0-4.41-5.4A9.71,9.71,0,0,0,30.8,11.63a9.22,9.22,0,0,0-3.42,2.74q-2.45,3.08-2.45,8.36ZM65,50.61v-10h10v-10h6.68v10h10v10h-10v10H75.07v-10Z"/>
</svg>
