<svg id="Layer_1" data-name="Layer 1" xmlns="http://www.w3.org/2000/svg" width="100" height="100" viewBox="0 0 100 100">
  <title>social</title>
  <path d="M69.21,18.29V36.18a6.33,6.33,0,0,1-1.47,1.28,2.89,2.89,0,0,1-1.37.52,1.17,1.17,0,0,1-.95-.38,1.8,1.8,0,0,1-.33-1.23V18.29H60.26V38a5,5,0,0,0,.85,3.17,3,3,0,0,0,2.51,1,6.49,6.49,0,0,0,2.84-.71,10.6,10.6,0,0,0,2.75-2.23v2.6H74V18.29ZM54.49,19.43a7,7,0,0,0-4.92-1.75,8,8,0,0,0-5.25,1.66,5.38,5.38,0,0,0-1.94,4.35V35.9a6.31,6.31,0,0,0,1.89,4.78,7.21,7.21,0,0,0,5.06,1.79,7.16,7.16,0,0,0,5.15-1.75A6,6,0,0,0,56.38,36V23.83A5.76,5.76,0,0,0,54.49,19.43Zm-3,16.94a1.94,1.94,0,0,1-.57,1.47,2.08,2.08,0,0,1-1.56.57,1.89,1.89,0,0,1-1.47-.57,2.07,2.07,0,0,1-.52-1.47V23.5a1.48,1.48,0,0,1,.57-1.23,2,2,0,0,1,1.42-.47,2.42,2.42,0,0,1,1.56.47,1.46,1.46,0,0,1,.57,1.23Zm-15-26.45L33.16,22.7h-.38L29.27,9.92H23.79l6.48,19.31V41.86h5.44V28.61L42,9.92ZM74.13,66.19a3.28,3.28,0,0,1,.42,1.89v2.18H70.81V68.07a2.91,2.91,0,0,1,.43-1.89,1.71,1.71,0,0,1,1.47-.62A1.68,1.68,0,0,1,74.13,66.19Zm-14.86-.1a1.58,1.58,0,0,0-1.33-.57,2.08,2.08,0,0,0-.9.19,3.69,3.69,0,0,0-.9.67V79.71a3.51,3.51,0,0,0,1,.76,2.57,2.57,0,0,0,1,.24,1.31,1.31,0,0,0,1.18-.47,2.27,2.27,0,0,0,.38-1.47V67.7A2.34,2.34,0,0,0,59.27,66.09Zm0,0a1.58,1.58,0,0,0-1.33-.57,2.08,2.08,0,0,0-.9.19,3.69,3.69,0,0,0-.9.67V79.71a3.51,3.51,0,0,0,1,.76,2.57,2.57,0,0,0,1,.24,1.31,1.31,0,0,0,1.18-.47,2.27,2.27,0,0,0,.38-1.47V67.7A2.34,2.34,0,0,0,59.27,66.09ZM83.54,49.57H16.46A13.48,13.48,0,0,0,3.07,63V76.69A13.44,13.44,0,0,0,16.46,90.08H83.54A13.44,13.44,0,0,0,96.93,76.69V63A13.48,13.48,0,0,0,83.54,49.57ZM34.53,59h-5V83.78H24.68V59h-5V54.78H34.53ZM48.62,83.78h-4.3V81.42a7.93,7.93,0,0,1-2.46,2,5,5,0,0,1-2.47.71,2.72,2.72,0,0,1-2.27-1,4.62,4.62,0,0,1-.71-2.83V62.35h4.26V78.82A1.73,1.73,0,0,0,41,79.9a.94.94,0,0,0,.85.33A2.12,2.12,0,0,0,43,79.76a4.33,4.33,0,0,0,1.32-1.14V62.35h4.3Zm15.52-4.45a5.42,5.42,0,0,1-1,3.5,3.61,3.61,0,0,1-2.93,1.23A4.91,4.91,0,0,1,58,83.6a6,6,0,0,1-1.84-1.47v1.65H51.84v-29h4.31V64.1A6.74,6.74,0,0,1,58,62.63a4.41,4.41,0,0,1,2-.52,3.71,3.71,0,0,1,3.07,1.37,6.29,6.29,0,0,1,1.09,4ZM79,73.61H70.81v4A4.5,4.5,0,0,0,71.2,80a1.58,1.58,0,0,0,1.47.66A1.71,1.71,0,0,0,74.13,80a4.42,4.42,0,0,0,.42-2.41v-1H79v1.08a6.75,6.75,0,0,1-1.66,5,6.17,6.17,0,0,1-4.78,1.66A5.87,5.87,0,0,1,68,82.6a6.93,6.93,0,0,1-1.65-4.88v-9.6a6,6,0,0,1,1.85-4.54,6.47,6.47,0,0,1,4.68-1.75,5.94,5.94,0,0,1,4.49,1.65A6.39,6.39,0,0,1,79,68.12Zm-21.06-8.1a2.08,2.08,0,0,0-.9.19,3.69,3.69,0,0,0-.9.67V79.71a3.51,3.51,0,0,0,1,.76,2.57,2.57,0,0,0,1,.24,1.31,1.31,0,0,0,1.18-.47,2.27,2.27,0,0,0,.38-1.47V67.7a2.34,2.34,0,0,0-.47-1.61A1.58,1.58,0,0,0,57.94,65.52Zm1.33.57a1.58,1.58,0,0,0-1.33-.57,2.08,2.08,0,0,0-.9.19,3.69,3.69,0,0,0-.9.67V79.71a3.51,3.51,0,0,0,1,.76,2.57,2.57,0,0,0,1,.24,1.31,1.31,0,0,0,1.18-.47,2.27,2.27,0,0,0,.38-1.47V67.7A2.34,2.34,0,0,0,59.27,66.09Zm0,0a1.58,1.58,0,0,0-1.33-.57,2.08,2.08,0,0,0-.9.19,3.69,3.69,0,0,0-.9.67V79.71a3.51,3.51,0,0,0,1,.76,2.57,2.57,0,0,0,1,.24,1.31,1.31,0,0,0,1.18-.47,2.27,2.27,0,0,0,.38-1.47V67.7A2.34,2.34,0,0,0,59.27,66.09Z"/>
</svg>
