<svg id="Layer_1" data-name="Layer 1" xmlns="http://www.w3.org/2000/svg" width="100" height="100" viewBox="0 0 100 100">
  <title>social</title>
  <path d="M43.71,64.68c-2.39,12.52-5.31,24.53-14,30.8-2.67-18.93,3.92-33.14,7-48.23-5.22-8.78.63-26.43,11.62-22.08,13.53,5.35-11.72,32.62,5.23,36,17.7,3.55,24.92-30.7,13.94-41.84C51.68,3.27,21.38,19,25.11,42c.91,5.63,6.72,7.34,2.32,15.11C17.29,54.88,14.26,46.88,14.65,36.21,15.28,18.74,30.34,6.52,45.45,4.83c19.11-2.14,37,7,39.52,25,2.79,20.29-8.62,42.26-29.06,40.68C50.37,70.06,48,67.31,43.71,64.68Z"/>
</svg>
