<svg id="Layer_1" data-name="Layer 1" xmlns="http://www.w3.org/2000/svg" width="100" height="100" viewBox="0 0 100 100">
  <title>social</title>
  <path d="M9.64,19.52A8.52,8.52,0,0,1,12.37,13a10,10,0,0,1,7.12-2.57,9.67,9.67,0,0,1,7,2.57,8.83,8.83,0,0,1,2.7,6.48A8.37,8.37,0,0,1,26.55,26a10,10,0,0,1-7.17,2.59h-.1a9.56,9.56,0,0,1-7-2.59,8.66,8.66,0,0,1-2.64-6.45Zm2.82,70V38.73H29.4v50.8Zm25.28,0c.07-14.85.1-26.26.1-35s0-14-.05-15.66l-.05-.13H53.1V45.5H53a20,20,0,0,1,5.37-5.61,14.74,14.74,0,0,1,4.79-2.26,22.9,22.9,0,0,1,6.31-.81q9.42,0,15.15,5.9T90.36,60V89.53H73.42V60.71c.09-3.71-.63-6.61-2.06-8.7s-3.66-3.15-6.7-3.15a8.57,8.57,0,0,0-5.58,1.83c-1.5,1.22-6,5-6,8.81v30H37.74Z"/>
</svg>
