<svg id="Layer_1" data-name="Layer 1" xmlns="http://www.w3.org/2000/svg" width="100" height="100" viewBox="0 0 100 100">
  <title>social</title>
  <path d="M89.06,30c0,.86.06,1.74.06,2.61,0,26.64-20.27,57.35-57.34,57.35A57,57,0,0,1,.88,80.85a40.88,40.88,0,0,0,4.8.28,40.45,40.45,0,0,0,25-8.62,20.17,20.17,0,0,1-18.82-14,20.6,20.6,0,0,0,3.79.35,20.21,20.21,0,0,0,5.31-.7A20.17,20.17,0,0,1,4.83,38.4v-.25A20.1,20.1,0,0,0,14,40.68,20.17,20.17,0,0,1,7.72,13.77,57.21,57.21,0,0,0,49.26,34.83a20.36,20.36,0,0,1-.52-4.6A20.16,20.16,0,0,1,83.61,16.45a40.59,40.59,0,0,0,12.8-4.89A20.23,20.23,0,0,1,87.54,22.7a40.31,40.31,0,0,0,11.57-3.17A40.7,40.7,0,0,1,89.06,30Z"/>
</svg>
