<svg id="Layer_1" data-name="Layer 1" xmlns="http://www.w3.org/2000/svg" width="100" height="100" viewBox="0 0 100 100">
  <title>social</title>
  <path d="M6.21,50a42.84,42.84,0,0,1,5.87-22A43.61,43.61,0,0,1,28,12.08,42.8,42.8,0,0,1,50,6.21a42.9,42.9,0,0,1,22,5.87A43.54,43.54,0,0,1,87.92,28a42.86,42.86,0,0,1,5.87,22,42.86,42.86,0,0,1-5.87,22A43.54,43.54,0,0,1,72,87.92a43.79,43.79,0,0,1-34.41,4A35.09,35.09,0,0,0,42,82.62q.51-1.94,3.08-12a9.54,9.54,0,0,0,4.16,3.85,13.47,13.47,0,0,0,6.5,1.62,20.53,20.53,0,0,0,12.32-3.91,25.3,25.3,0,0,0,8.38-10.75,38.29,38.29,0,0,0,3-15.4A23.47,23.47,0,0,0,76,33.8a25.67,25.67,0,0,0-9.84-9.3,29.35,29.35,0,0,0-14.54-3.59,36.63,36.63,0,0,0-11.18,1.65A29.16,29.16,0,0,0,31.67,27a30,30,0,0,0-6.22,6.3,26.11,26.11,0,0,0-3.82,7.38,24.86,24.86,0,0,0-1.23,7.64,22.79,22.79,0,0,0,2.28,10.43,12.87,12.87,0,0,0,6.67,6.33q1.71.68,2.17-1.14.11-.4.46-1.77t.46-1.71A2.6,2.6,0,0,0,31.81,58a13,13,0,0,1-2.91-8.61,20.59,20.59,0,0,1,6-14.8q6-6.19,15.59-6.19,8.61,0,13.43,4.68A16.15,16.15,0,0,1,68.7,45.2q0,9.69-3.91,16.48t-10,6.78A7,7,0,0,1,49.2,66a6.47,6.47,0,0,1-1.31-6q.46-2,1.51-5.33t1.71-5.87a17.67,17.67,0,0,0,.66-4.31,7.23,7.23,0,0,0-1.54-4.73,5.35,5.35,0,0,0-4.39-1.88,7.29,7.29,0,0,0-6,3.25,13.07,13.07,0,0,0-2.45,8.1,15.19,15.19,0,0,0,1.43,7L33.18,80a37.69,37.69,0,0,0-.74,10.09,43.65,43.65,0,0,1-19-16A42.47,42.47,0,0,1,6.21,50Z"/>
</svg>
