<svg id="Layer_1" data-name="Layer 1" xmlns="http://www.w3.org/2000/svg" width="100" height="100" viewBox="0 0 100 100">
  <title>ui</title>
  <path d="M50,6.1A43.9,43.9,0,1,0,93.9,50,43.9,43.9,0,0,0,50,6.1ZM75.25,64.32a2.15,2.15,0,0,1,.63,1.5,2.13,2.13,0,0,1-.63,1.5l-7.91,7.91a2.18,2.18,0,0,1-1.5.63,2.13,2.13,0,0,1-1.5-.63L50,60.92,35.67,75.24a2.18,2.18,0,0,1-1.5.63,2.13,2.13,0,0,1-1.5-.63l-7.91-7.91a2.1,2.1,0,0,1,0-3L39.07,50,24.75,35.68a2.15,2.15,0,0,1-.63-1.5,2.13,2.13,0,0,1,.63-1.5l7.91-7.91a2.12,2.12,0,0,1,3,0L50,39.08,64.32,24.75a2.15,2.15,0,0,1,1.5-.63,2.13,2.13,0,0,1,1.5.63l7.91,7.91a2.12,2.12,0,0,1,0,3L60.93,50Z"/>
</svg>
