<svg id="Layer_1" data-name="Layer 1" xmlns="http://www.w3.org/2000/svg" width="100" height="100" viewBox="0 0 100 100">
  <title>ui</title>
  <path d="M90,42.16H10a3.77,3.77,0,0,0-2.76,1.16A3.77,3.77,0,0,0,6.1,46.08v7.84a3.77,3.77,0,0,0,1.16,2.76A3.77,3.77,0,0,0,10,57.84H90a4,4,0,0,0,3.92-3.92V46.08A4,4,0,0,0,90,42.16Zm0,31.35H10a3.77,3.77,0,0,0-2.76,1.16A3.77,3.77,0,0,0,6.1,77.43v7.84A3.77,3.77,0,0,0,7.27,88,3.77,3.77,0,0,0,10,89.19H90a4,4,0,0,0,3.92-3.92V77.43A4,4,0,0,0,90,73.52ZM92.73,12A3.77,3.77,0,0,0,90,10.81H10A3.77,3.77,0,0,0,7.27,12,3.77,3.77,0,0,0,6.1,14.73v7.84a3.77,3.77,0,0,0,1.16,2.76A3.77,3.77,0,0,0,10,26.48H90a4,4,0,0,0,3.92-3.92V14.73A3.77,3.77,0,0,0,92.73,12Z"/>
</svg>
