<svg id="Layer_1" data-name="Layer 1" xmlns="http://www.w3.org/2000/svg" width="100" height="100" viewBox="0 0 100 100">
  <title>ui</title>
  <path d="M91.09,42A5.62,5.62,0,0,0,87,40.27H59.73V13A5.65,5.65,0,0,0,58,8.91a5.62,5.62,0,0,0-4.13-1.7H46.11A5.82,5.82,0,0,0,40.27,13V40.27H13A5.65,5.65,0,0,0,8.91,42a5.62,5.62,0,0,0-1.7,4.13v7.78A5.82,5.82,0,0,0,13,59.73H40.27V87a5.82,5.82,0,0,0,5.84,5.84h7.78A5.82,5.82,0,0,0,59.73,87V59.73H87a5.82,5.82,0,0,0,5.84-5.84V46.11A5.65,5.65,0,0,0,91.09,42Z"/>
</svg>
